<svg xmlns="http://www.w3.org/2000/svg" xmlns:xlink="http://www.w3.org/1999/xlink" width="500" zoomAndPan="magnify" viewBox="0 0 375 374.999991" height="500" preserveAspectRatio="xMidYMid meet" version="1.0"><defs><g/><clipPath id="id1"><path d="M 37.5 122 L 126 122 L 126 188 L 37.5 188 Z M 37.5 122 " clip-rule="nonzero"/></clipPath><clipPath id="id2"><path d="M 37.5 156 L 96 156 L 96 222 L 37.5 222 Z M 37.5 156 " clip-rule="nonzero"/></clipPath><clipPath id="id3"><path d="M 37.5 203 L 96 203 L 96 253.191406 L 37.5 253.191406 Z M 37.5 203 " clip-rule="nonzero"/></clipPath><clipPath id="id4"><path d="M 95 203 L 126 203 L 126 253.191406 L 95 253.191406 Z M 95 203 " clip-rule="nonzero"/></clipPath></defs><g clip-path="url(#id1)"><path fill="#a6a6a6" d="M 37.5 187.566406 L 95.078125 153.476562 L 95.078125 153.6875 L 126 137.851562 L 95.078125 122.011719 L 37.5 156.101562 Z M 37.5 187.566406 " fill-opacity="1" fill-rule="evenodd"/></g><g clip-path="url(#id2)"><path fill="#737373" d="M 37.5 156.101562 L 95.078125 190.152344 L 95.078125 221.617188 L 37.5 187.566406 Z M 37.5 156.101562 " fill-opacity="1" fill-rule="evenodd"/></g><path fill="#000000" d="M 95.078125 153.476562 L 126 171.773438 L 95.078125 190.066406 Z M 95.078125 153.476562 " fill-opacity="1" fill-rule="evenodd"/><g clip-path="url(#id3)"><path fill="#000000" d="M 64.074219 203.277344 L 95.078125 221.617188 L 95.078125 253.121094 L 37.5 219.03125 Z M 64.074219 203.277344 " fill-opacity="1" fill-rule="evenodd"/></g><g clip-path="url(#id4)"><path fill="#737373" d="M 126 203.320312 L 95.078125 221.617188 L 95.078125 253.121094 L 126 234.785156 Z M 126 203.320312 " fill-opacity="1" fill-rule="evenodd"/></g><g fill="#545454" fill-opacity="1"><g transform="translate(142.381387, 174.044007)"><g><path d="M 2.53125 -17.5625 L 7.34375 -17.5625 C 9.53125 -17.5625 11.335938 -17.128906 12.765625 -16.265625 C 14.203125 -15.398438 15.25 -14.28125 15.90625 -12.90625 C 16.5625 -11.539062 16.890625 -10.097656 16.890625 -8.578125 C 16.890625 -6.878906 16.488281 -5.375 15.6875 -4.0625 C 14.894531 -2.757812 13.832031 -1.753906 12.5 -1.046875 C 11.175781 -0.347656 9.738281 0 8.1875 0 L 2.53125 0 Z M 7.71875 -2.28125 C 9.019531 -2.28125 10.179688 -2.535156 11.203125 -3.046875 C 12.222656 -3.554688 13.019531 -4.296875 13.59375 -5.265625 C 14.164062 -6.242188 14.453125 -7.40625 14.453125 -8.75 C 14.453125 -10.125 14.148438 -11.304688 13.546875 -12.296875 C 12.953125 -13.285156 12.15625 -14.035156 11.15625 -14.546875 C 10.164062 -15.054688 9.09375 -15.3125 7.9375 -15.3125 L 4.890625 -15.3125 L 4.890625 -2.28125 Z M 7.71875 -2.28125 "/></g></g></g><g fill="#545454" fill-opacity="1"><g transform="translate(160.697284, 174.044007)"><g><path d="M 1.4375 -8.765625 C 1.4375 -10.367188 1.835938 -11.859375 2.640625 -13.234375 C 3.453125 -14.617188 4.539062 -15.71875 5.90625 -16.53125 C 7.28125 -17.351562 8.78125 -17.765625 10.40625 -17.765625 C 12 -17.765625 13.484375 -17.351562 14.859375 -16.53125 C 16.242188 -15.71875 17.34375 -14.617188 18.15625 -13.234375 C 18.976562 -11.859375 19.390625 -10.367188 19.390625 -8.765625 C 19.390625 -7.148438 18.984375 -5.65625 18.171875 -4.28125 C 17.359375 -2.90625 16.257812 -1.816406 14.875 -1.015625 C 13.488281 -0.210938 12 0.1875 10.40625 0.1875 C 8.78125 0.1875 7.28125 -0.207031 5.90625 -1 C 4.53125 -1.789062 3.441406 -2.867188 2.640625 -4.234375 C 1.835938 -5.609375 1.4375 -7.117188 1.4375 -8.765625 Z M 3.859375 -8.75 C 3.859375 -7.550781 4.148438 -6.441406 4.734375 -5.421875 C 5.316406 -4.398438 6.113281 -3.585938 7.125 -2.984375 C 8.144531 -2.390625 9.253906 -2.09375 10.453125 -2.09375 C 11.648438 -2.09375 12.742188 -2.382812 13.734375 -2.96875 C 14.734375 -3.5625 15.519531 -4.375 16.09375 -5.40625 C 16.664062 -6.4375 16.953125 -7.554688 16.953125 -8.765625 C 16.953125 -9.984375 16.660156 -11.109375 16.078125 -12.140625 C 15.492188 -13.179688 14.703125 -14 13.703125 -14.59375 C 12.703125 -15.195312 11.601562 -15.5 10.40625 -15.5 C 9.195312 -15.5 8.09375 -15.191406 7.09375 -14.578125 C 6.09375 -13.972656 5.300781 -13.148438 4.71875 -12.109375 C 4.144531 -11.078125 3.859375 -9.957031 3.859375 -8.75 Z M 3.859375 -8.75 "/></g></g></g><g fill="#545454" fill-opacity="1"><g transform="translate(181.515216, 174.044007)"><g><path d="M 17.828125 -17.5625 L 17.828125 0.578125 L 17.765625 0.578125 L 4.859375 -12.515625 L 4.90625 0 L 2.53125 0 L 2.53125 -18.09375 L 2.640625 -18.09375 L 15.53125 -4.859375 L 15.484375 -17.5625 Z M 17.828125 -17.5625 "/></g></g></g><g fill="#545454" fill-opacity="1"><g transform="translate(201.871618, 174.044007)"><g><path d="M 1.4375 -8.765625 C 1.4375 -10.367188 1.835938 -11.859375 2.640625 -13.234375 C 3.453125 -14.617188 4.539062 -15.71875 5.90625 -16.53125 C 7.28125 -17.351562 8.78125 -17.765625 10.40625 -17.765625 C 12 -17.765625 13.484375 -17.351562 14.859375 -16.53125 C 16.242188 -15.71875 17.34375 -14.617188 18.15625 -13.234375 C 18.976562 -11.859375 19.390625 -10.367188 19.390625 -8.765625 C 19.390625 -7.148438 18.984375 -5.65625 18.171875 -4.28125 C 17.359375 -2.90625 16.257812 -1.816406 14.875 -1.015625 C 13.488281 -0.210938 12 0.1875 10.40625 0.1875 C 8.78125 0.1875 7.28125 -0.207031 5.90625 -1 C 4.53125 -1.789062 3.441406 -2.867188 2.640625 -4.234375 C 1.835938 -5.609375 1.4375 -7.117188 1.4375 -8.765625 Z M 3.859375 -8.75 C 3.859375 -7.550781 4.148438 -6.441406 4.734375 -5.421875 C 5.316406 -4.398438 6.113281 -3.585938 7.125 -2.984375 C 8.144531 -2.390625 9.253906 -2.09375 10.453125 -2.09375 C 11.648438 -2.09375 12.742188 -2.382812 13.734375 -2.96875 C 14.734375 -3.5625 15.519531 -4.375 16.09375 -5.40625 C 16.664062 -6.4375 16.953125 -7.554688 16.953125 -8.765625 C 16.953125 -9.984375 16.660156 -11.109375 16.078125 -12.140625 C 15.492188 -13.179688 14.703125 -14 13.703125 -14.59375 C 12.703125 -15.195312 11.601562 -15.5 10.40625 -15.5 C 9.195312 -15.5 8.09375 -15.191406 7.09375 -14.578125 C 6.09375 -13.972656 5.300781 -13.148438 4.71875 -12.109375 C 4.144531 -11.078125 3.859375 -9.957031 3.859375 -8.75 Z M 3.859375 -8.75 "/></g></g></g><g fill="#545454" fill-opacity="1"><g transform="translate(222.68955, 174.044007)"><g><path d="M 11.609375 -14.4375 C 10.984375 -14.769531 10.3125 -15.039062 9.59375 -15.25 C 8.882812 -15.46875 8.210938 -15.578125 7.578125 -15.578125 C 6.617188 -15.578125 5.859375 -15.359375 5.296875 -14.921875 C 4.742188 -14.492188 4.46875 -13.910156 4.46875 -13.171875 C 4.46875 -12.441406 4.796875 -11.84375 5.453125 -11.375 C 6.109375 -10.914062 7.046875 -10.460938 8.265625 -10.015625 C 9.171875 -9.691406 9.9375 -9.335938 10.5625 -8.953125 C 11.1875 -8.566406 11.703125 -8.035156 12.109375 -7.359375 C 12.523438 -6.691406 12.734375 -5.84375 12.734375 -4.8125 C 12.734375 -3.875 12.5 -3.023438 12.03125 -2.265625 C 11.5625 -1.503906 10.890625 -0.90625 10.015625 -0.46875 C 9.148438 -0.03125 8.132812 0.1875 6.96875 0.1875 C 5.882812 0.1875 4.835938 0.015625 3.828125 -0.328125 C 2.828125 -0.671875 1.945312 -1.113281 1.1875 -1.65625 L 2.234375 -3.515625 C 2.835938 -3.066406 3.554688 -2.679688 4.390625 -2.359375 C 5.234375 -2.046875 6.019531 -1.890625 6.75 -1.890625 C 7.6875 -1.890625 8.507812 -2.132812 9.21875 -2.625 C 9.925781 -3.113281 10.28125 -3.832031 10.28125 -4.78125 C 10.28125 -5.59375 9.984375 -6.238281 9.390625 -6.71875 C 8.796875 -7.195312 7.96875 -7.644531 6.90625 -8.0625 C 5.914062 -8.4375 5.09375 -8.800781 4.4375 -9.15625 C 3.78125 -9.507812 3.21875 -10 2.75 -10.625 C 2.28125 -11.25 2.046875 -12.03125 2.046875 -12.96875 C 2.046875 -14.351562 2.523438 -15.46875 3.484375 -16.3125 C 4.453125 -17.164062 5.703125 -17.613281 7.234375 -17.65625 C 9.128906 -17.65625 10.890625 -17.1875 12.515625 -16.25 Z M 11.609375 -14.4375 "/></g></g></g><g fill="#545454" fill-opacity="1"><g transform="translate(236.827293, 174.044007)"><g><path d="M 1.4375 -8.765625 C 1.4375 -10.367188 1.835938 -11.859375 2.640625 -13.234375 C 3.453125 -14.617188 4.539062 -15.71875 5.90625 -16.53125 C 7.28125 -17.351562 8.78125 -17.765625 10.40625 -17.765625 C 12 -17.765625 13.484375 -17.351562 14.859375 -16.53125 C 16.242188 -15.71875 17.34375 -14.617188 18.15625 -13.234375 C 18.976562 -11.859375 19.390625 -10.367188 19.390625 -8.765625 C 19.390625 -7.148438 18.984375 -5.65625 18.171875 -4.28125 C 17.359375 -2.90625 16.257812 -1.816406 14.875 -1.015625 C 13.488281 -0.210938 12 0.1875 10.40625 0.1875 C 8.78125 0.1875 7.28125 -0.207031 5.90625 -1 C 4.53125 -1.789062 3.441406 -2.867188 2.640625 -4.234375 C 1.835938 -5.609375 1.4375 -7.117188 1.4375 -8.765625 Z M 3.859375 -8.75 C 3.859375 -7.550781 4.148438 -6.441406 4.734375 -5.421875 C 5.316406 -4.398438 6.113281 -3.585938 7.125 -2.984375 C 8.144531 -2.390625 9.253906 -2.09375 10.453125 -2.09375 C 11.648438 -2.09375 12.742188 -2.382812 13.734375 -2.96875 C 14.734375 -3.5625 15.519531 -4.375 16.09375 -5.40625 C 16.664062 -6.4375 16.953125 -7.554688 16.953125 -8.765625 C 16.953125 -9.984375 16.660156 -11.109375 16.078125 -12.140625 C 15.492188 -13.179688 14.703125 -14 13.703125 -14.59375 C 12.703125 -15.195312 11.601562 -15.5 10.40625 -15.5 C 9.195312 -15.5 8.09375 -15.191406 7.09375 -14.578125 C 6.09375 -13.972656 5.300781 -13.148438 4.71875 -12.109375 C 4.144531 -11.078125 3.859375 -9.957031 3.859375 -8.75 Z M 3.859375 -8.75 "/></g></g></g><g fill="#545454" fill-opacity="1"><g transform="translate(257.639326, 174.044007)"><g/></g></g><g fill="#545454" fill-opacity="1"><g transform="translate(142.381387, 200.359761)"><g><path d="M 13.609375 0 L 12.140625 -1.9375 C 11.628906 -1.28125 10.945312 -0.75 10.09375 -0.34375 C 9.238281 0.0507812 8.269531 0.25 7.1875 0.25 C 6.09375 0.25 5.101562 0.0195312 4.21875 -0.4375 C 3.332031 -0.894531 2.640625 -1.515625 2.140625 -2.296875 C 1.640625 -3.078125 1.390625 -3.960938 1.390625 -4.953125 C 1.390625 -5.785156 1.59375 -6.550781 2 -7.25 C 2.414062 -7.957031 2.972656 -8.5625 3.671875 -9.0625 C 4.378906 -9.5625 5.148438 -9.914062 5.984375 -10.125 L 5.203125 -11.15625 C 4.367188 -12.363281 3.953125 -13.445312 3.953125 -14.40625 C 3.953125 -15.101562 4.125 -15.757812 4.46875 -16.375 C 4.820312 -16.988281 5.328125 -17.484375 5.984375 -17.859375 C 6.640625 -18.234375 7.40625 -18.421875 8.28125 -18.421875 C 9.175781 -18.421875 10.007812 -18.238281 10.78125 -17.875 C 11.550781 -17.519531 12.191406 -17.066406 12.703125 -16.515625 L 11.546875 -14.9375 C 10.441406 -15.925781 9.476562 -16.421875 8.65625 -16.421875 C 7.96875 -16.421875 7.414062 -16.207031 7 -15.78125 C 6.59375 -15.363281 6.390625 -14.847656 6.390625 -14.234375 C 6.390625 -13.648438 6.65625 -12.953125 7.1875 -12.140625 L 11.859375 -5.953125 L 13.53125 -10.328125 L 15.71875 -10.328125 L 13.265625 -4.078125 L 16.359375 0 Z M 7.484375 -1.875 C 8.273438 -1.875 8.957031 -2.03125 9.53125 -2.34375 C 10.113281 -2.65625 10.566406 -3.070312 10.890625 -3.59375 L 7.234375 -8.453125 C 6.648438 -8.421875 6.09375 -8.25 5.5625 -7.9375 C 5.039062 -7.632812 4.625 -7.226562 4.3125 -6.71875 C 4 -6.207031 3.84375 -5.648438 3.84375 -5.046875 C 3.84375 -4.128906 4.191406 -3.367188 4.890625 -2.765625 C 5.597656 -2.171875 6.460938 -1.875 7.484375 -1.875 Z M 7.484375 -1.875 "/></g></g></g><g fill="#545454" fill-opacity="1"><g transform="translate(160.017126, 200.359761)"><g/></g></g><g fill="#545454" fill-opacity="1"><g transform="translate(167.693274, 200.359761)"><g><path d="M 11.734375 -4.609375 L 4.984375 -4.609375 L 3.109375 0 L 0.78125 0 L 8.453125 -18.296875 L 8.59375 -18.296875 L 16.28125 0 L 13.5625 0 Z M 10.9375 -6.65625 L 8.4375 -13.078125 L 5.828125 -6.65625 Z M 10.9375 -6.65625 "/></g></g></g><g fill="#545454" fill-opacity="1"><g transform="translate(184.72172, 200.359761)"><g><path d="M 11.609375 -14.4375 C 10.984375 -14.769531 10.3125 -15.039062 9.59375 -15.25 C 8.882812 -15.46875 8.210938 -15.578125 7.578125 -15.578125 C 6.617188 -15.578125 5.859375 -15.359375 5.296875 -14.921875 C 4.742188 -14.492188 4.46875 -13.910156 4.46875 -13.171875 C 4.46875 -12.441406 4.796875 -11.84375 5.453125 -11.375 C 6.109375 -10.914062 7.046875 -10.460938 8.265625 -10.015625 C 9.171875 -9.691406 9.9375 -9.335938 10.5625 -8.953125 C 11.1875 -8.566406 11.703125 -8.035156 12.109375 -7.359375 C 12.523438 -6.691406 12.734375 -5.84375 12.734375 -4.8125 C 12.734375 -3.875 12.5 -3.023438 12.03125 -2.265625 C 11.5625 -1.503906 10.890625 -0.90625 10.015625 -0.46875 C 9.148438 -0.03125 8.132812 0.1875 6.96875 0.1875 C 5.882812 0.1875 4.835938 0.015625 3.828125 -0.328125 C 2.828125 -0.671875 1.945312 -1.113281 1.1875 -1.65625 L 2.234375 -3.515625 C 2.835938 -3.066406 3.554688 -2.679688 4.390625 -2.359375 C 5.234375 -2.046875 6.019531 -1.890625 6.75 -1.890625 C 7.6875 -1.890625 8.507812 -2.132812 9.21875 -2.625 C 9.925781 -3.113281 10.28125 -3.832031 10.28125 -4.78125 C 10.28125 -5.59375 9.984375 -6.238281 9.390625 -6.71875 C 8.796875 -7.195312 7.96875 -7.644531 6.90625 -8.0625 C 5.914062 -8.4375 5.09375 -8.800781 4.4375 -9.15625 C 3.78125 -9.507812 3.21875 -10 2.75 -10.625 C 2.28125 -11.25 2.046875 -12.03125 2.046875 -12.96875 C 2.046875 -14.351562 2.523438 -15.46875 3.484375 -16.3125 C 4.453125 -17.164062 5.703125 -17.613281 7.234375 -17.65625 C 9.128906 -17.65625 10.890625 -17.1875 12.515625 -16.25 Z M 11.609375 -14.4375 "/></g></g></g><g fill="#545454" fill-opacity="1"><g transform="translate(198.859463, 200.359761)"><g><path d="M 1.4375 -8.765625 C 1.4375 -10.367188 1.835938 -11.859375 2.640625 -13.234375 C 3.453125 -14.617188 4.539062 -15.71875 5.90625 -16.53125 C 7.28125 -17.351562 8.78125 -17.765625 10.40625 -17.765625 C 12 -17.765625 13.484375 -17.351562 14.859375 -16.53125 C 16.242188 -15.71875 17.34375 -14.617188 18.15625 -13.234375 C 18.976562 -11.859375 19.390625 -10.367188 19.390625 -8.765625 C 19.390625 -7.148438 18.984375 -5.65625 18.171875 -4.28125 C 17.359375 -2.90625 16.257812 -1.816406 14.875 -1.015625 C 13.488281 -0.210938 12 0.1875 10.40625 0.1875 C 8.78125 0.1875 7.28125 -0.207031 5.90625 -1 C 4.53125 -1.789062 3.441406 -2.867188 2.640625 -4.234375 C 1.835938 -5.609375 1.4375 -7.117188 1.4375 -8.765625 Z M 3.859375 -8.75 C 3.859375 -7.550781 4.148438 -6.441406 4.734375 -5.421875 C 5.316406 -4.398438 6.113281 -3.585938 7.125 -2.984375 C 8.144531 -2.390625 9.253906 -2.09375 10.453125 -2.09375 C 11.648438 -2.09375 12.742188 -2.382812 13.734375 -2.96875 C 14.734375 -3.5625 15.519531 -4.375 16.09375 -5.40625 C 16.664062 -6.4375 16.953125 -7.554688 16.953125 -8.765625 C 16.953125 -9.984375 16.660156 -11.109375 16.078125 -12.140625 C 15.492188 -13.179688 14.703125 -14 13.703125 -14.59375 C 12.703125 -15.195312 11.601562 -15.5 10.40625 -15.5 C 9.195312 -15.5 8.09375 -15.191406 7.09375 -14.578125 C 6.09375 -13.972656 5.300781 -13.148438 4.71875 -12.109375 C 4.144531 -11.078125 3.859375 -9.957031 3.859375 -8.75 Z M 3.859375 -8.75 "/></g></g></g><g fill="#545454" fill-opacity="1"><g transform="translate(219.677396, 200.359761)"><g><path d="M 15.421875 -1.3125 C 14.859375 -0.9375 14.144531 -0.59375 13.28125 -0.28125 C 12.414062 0.03125 11.472656 0.1875 10.453125 0.1875 C 8.648438 0.1875 7.0625 -0.207031 5.6875 -1 C 4.320312 -1.789062 3.269531 -2.859375 2.53125 -4.203125 C 1.800781 -5.546875 1.4375 -7.03125 1.4375 -8.65625 C 1.4375 -10.382812 1.804688 -11.941406 2.546875 -13.328125 C 3.296875 -14.710938 4.328125 -15.796875 5.640625 -16.578125 C 6.960938 -17.367188 8.457031 -17.765625 10.125 -17.765625 C 11.113281 -17.765625 12.035156 -17.632812 12.890625 -17.375 C 13.753906 -17.113281 14.523438 -16.773438 15.203125 -16.359375 L 14.265625 -14.140625 C 12.921875 -15.046875 11.566406 -15.5 10.203125 -15.5 C 9.066406 -15.5 8.015625 -15.195312 7.046875 -14.59375 C 6.085938 -14 5.320312 -13.1875 4.75 -12.15625 C 4.175781 -11.132812 3.890625 -10.003906 3.890625 -8.765625 C 3.890625 -7.503906 4.148438 -6.363281 4.671875 -5.34375 C 5.203125 -4.320312 5.957031 -3.523438 6.9375 -2.953125 C 7.914062 -2.378906 9.046875 -2.09375 10.328125 -2.09375 C 11.898438 -2.09375 13.269531 -2.535156 14.4375 -3.421875 Z M 15.421875 -1.3125 "/></g></g></g><g fill="#545454" fill-opacity="1"><g transform="translate(236.535802, 200.359761)"><g><path d="M 4.890625 -17.5625 L 4.890625 0 L 2.53125 0 L 2.53125 -17.5625 Z M 4.890625 -17.5625 "/></g></g></g><g fill="#545454" fill-opacity="1"><g transform="translate(243.944737, 200.359761)"><g><path d="M 11.734375 -4.609375 L 4.984375 -4.609375 L 3.109375 0 L 0.78125 0 L 8.453125 -18.296875 L 8.59375 -18.296875 L 16.28125 0 L 13.5625 0 Z M 10.9375 -6.65625 L 8.4375 -13.078125 L 5.828125 -6.65625 Z M 10.9375 -6.65625 "/></g></g></g><g fill="#545454" fill-opacity="1"><g transform="translate(260.973182, 200.359761)"><g><path d="M 2.53125 -17.5625 L 7.34375 -17.5625 C 9.53125 -17.5625 11.335938 -17.128906 12.765625 -16.265625 C 14.203125 -15.398438 15.25 -14.28125 15.90625 -12.90625 C 16.5625 -11.539062 16.890625 -10.097656 16.890625 -8.578125 C 16.890625 -6.878906 16.488281 -5.375 15.6875 -4.0625 C 14.894531 -2.757812 13.832031 -1.753906 12.5 -1.046875 C 11.175781 -0.347656 9.738281 0 8.1875 0 L 2.53125 0 Z M 7.71875 -2.28125 C 9.019531 -2.28125 10.179688 -2.535156 11.203125 -3.046875 C 12.222656 -3.554688 13.019531 -4.296875 13.59375 -5.265625 C 14.164062 -6.242188 14.453125 -7.40625 14.453125 -8.75 C 14.453125 -10.125 14.148438 -11.304688 13.546875 -12.296875 C 12.953125 -13.285156 12.15625 -14.035156 11.15625 -14.546875 C 10.164062 -15.054688 9.09375 -15.3125 7.9375 -15.3125 L 4.890625 -15.3125 L 4.890625 -2.28125 Z M 7.71875 -2.28125 "/></g></g></g><g fill="#545454" fill-opacity="1"><g transform="translate(279.289078, 200.359761)"><g><path d="M 1.4375 -8.765625 C 1.4375 -10.367188 1.835938 -11.859375 2.640625 -13.234375 C 3.453125 -14.617188 4.539062 -15.71875 5.90625 -16.53125 C 7.28125 -17.351562 8.78125 -17.765625 10.40625 -17.765625 C 12 -17.765625 13.484375 -17.351562 14.859375 -16.53125 C 16.242188 -15.71875 17.34375 -14.617188 18.15625 -13.234375 C 18.976562 -11.859375 19.390625 -10.367188 19.390625 -8.765625 C 19.390625 -7.148438 18.984375 -5.65625 18.171875 -4.28125 C 17.359375 -2.90625 16.257812 -1.816406 14.875 -1.015625 C 13.488281 -0.210938 12 0.1875 10.40625 0.1875 C 8.78125 0.1875 7.28125 -0.207031 5.90625 -1 C 4.53125 -1.789062 3.441406 -2.867188 2.640625 -4.234375 C 1.835938 -5.609375 1.4375 -7.117188 1.4375 -8.765625 Z M 3.859375 -8.75 C 3.859375 -7.550781 4.148438 -6.441406 4.734375 -5.421875 C 5.316406 -4.398438 6.113281 -3.585938 7.125 -2.984375 C 8.144531 -2.390625 9.253906 -2.09375 10.453125 -2.09375 C 11.648438 -2.09375 12.742188 -2.382812 13.734375 -2.96875 C 14.734375 -3.5625 15.519531 -4.375 16.09375 -5.40625 C 16.664062 -6.4375 16.953125 -7.554688 16.953125 -8.765625 C 16.953125 -9.984375 16.660156 -11.109375 16.078125 -12.140625 C 15.492188 -13.179688 14.703125 -14 13.703125 -14.59375 C 12.703125 -15.195312 11.601562 -15.5 10.40625 -15.5 C 9.195312 -15.5 8.09375 -15.191406 7.09375 -14.578125 C 6.09375 -13.972656 5.300781 -13.148438 4.71875 -12.109375 C 4.144531 -11.078125 3.859375 -9.957031 3.859375 -8.75 Z M 3.859375 -8.75 "/></g></g></g><g fill="#545454" fill-opacity="1"><g transform="translate(300.107011, 200.359761)"><g><path d="M 11.609375 -14.4375 C 10.984375 -14.769531 10.3125 -15.039062 9.59375 -15.25 C 8.882812 -15.46875 8.210938 -15.578125 7.578125 -15.578125 C 6.617188 -15.578125 5.859375 -15.359375 5.296875 -14.921875 C 4.742188 -14.492188 4.46875 -13.910156 4.46875 -13.171875 C 4.46875 -12.441406 4.796875 -11.84375 5.453125 -11.375 C 6.109375 -10.914062 7.046875 -10.460938 8.265625 -10.015625 C 9.171875 -9.691406 9.9375 -9.335938 10.5625 -8.953125 C 11.1875 -8.566406 11.703125 -8.035156 12.109375 -7.359375 C 12.523438 -6.691406 12.734375 -5.84375 12.734375 -4.8125 C 12.734375 -3.875 12.5 -3.023438 12.03125 -2.265625 C 11.5625 -1.503906 10.890625 -0.90625 10.015625 -0.46875 C 9.148438 -0.03125 8.132812 0.1875 6.96875 0.1875 C 5.882812 0.1875 4.835938 0.015625 3.828125 -0.328125 C 2.828125 -0.671875 1.945312 -1.113281 1.1875 -1.65625 L 2.234375 -3.515625 C 2.835938 -3.066406 3.554688 -2.679688 4.390625 -2.359375 C 5.234375 -2.046875 6.019531 -1.890625 6.75 -1.890625 C 7.6875 -1.890625 8.507812 -2.132812 9.21875 -2.625 C 9.925781 -3.113281 10.28125 -3.832031 10.28125 -4.78125 C 10.28125 -5.59375 9.984375 -6.238281 9.390625 -6.71875 C 8.796875 -7.195312 7.96875 -7.644531 6.90625 -8.0625 C 5.914062 -8.4375 5.09375 -8.800781 4.4375 -9.15625 C 3.78125 -9.507812 3.21875 -10 2.75 -10.625 C 2.28125 -11.25 2.046875 -12.03125 2.046875 -12.96875 C 2.046875 -14.351562 2.523438 -15.46875 3.484375 -16.3125 C 4.453125 -17.164062 5.703125 -17.613281 7.234375 -17.65625 C 9.128906 -17.65625 10.890625 -17.1875 12.515625 -16.25 Z M 11.609375 -14.4375 "/></g></g></g><g fill="#000000" fill-opacity="1"><g transform="translate(141.631387, 230.193705)"><g><path d="M 6.515625 -7.171875 L 3.53125 0.328125 L 0.546875 -7.171875 L 0.78125 -7.171875 L 3.546875 -0.109375 L 6.296875 -7.171875 Z M 6.515625 -7.171875 "/></g></g></g><g fill="#000000" fill-opacity="1"><g transform="translate(153.805575, 230.193705)"><g><path d="M 5.5 -7.171875 L 5.5 -6.984375 L 1.421875 -6.984375 L 1.421875 -3.71875 L 5.09375 -3.71875 L 5.09375 -3.53125 L 1.421875 -3.53125 L 1.421875 -0.1875 L 5.640625 -0.1875 L 5.640625 0 L 1.21875 0 L 1.21875 -7.171875 Z M 5.5 -7.171875 "/></g></g></g><g fill="#000000" fill-opacity="1"><g transform="translate(165.356427, 230.193705)"><g><path d="M 7.09375 -7.171875 L 7.09375 0.140625 L 7.078125 0.140625 L 1.40625 -6.75 L 1.421875 0 L 1.21875 0 L 1.21875 -7.28125 L 6.890625 -0.40625 L 6.890625 -7.171875 Z M 7.09375 -7.171875 "/></g></g></g><g fill="#000000" fill-opacity="1"><g transform="translate(178.767068, 230.193705)"><g><path d="M 5.265625 -7.171875 L 5.265625 -6.984375 L 3.03125 -6.984375 L 3.03125 0 L 2.828125 0 L 2.828125 -6.984375 L 0.609375 -6.984375 L 0.609375 -7.171875 Z M 5.265625 -7.171875 "/></g></g></g><g fill="#000000" fill-opacity="1"><g transform="translate(189.745671, 230.193705)"><g><path d="M 5.328125 -2.6875 L 1.90625 -2.6875 L 0.84375 0 L 0.640625 0 L 3.625 -7.5 L 3.640625 -7.5 L 6.609375 0 L 6.390625 0 Z M 5.25 -2.875 L 3.625 -7.015625 L 1.984375 -2.875 Z M 5.25 -2.875 "/></g></g></g><g fill="#000000" fill-opacity="1"><g transform="translate(202.093582, 230.193705)"><g><path d="M 4.5625 -6.65625 C 4.332031 -6.757812 4.066406 -6.847656 3.765625 -6.921875 C 3.472656 -7.003906 3.175781 -7.046875 2.875 -7.046875 C 2.539062 -7.046875 2.238281 -6.984375 1.96875 -6.859375 C 1.707031 -6.734375 1.503906 -6.5625 1.359375 -6.34375 C 1.210938 -6.132812 1.140625 -5.898438 1.140625 -5.640625 C 1.140625 -5.359375 1.222656 -5.117188 1.390625 -4.921875 C 1.554688 -4.722656 1.757812 -4.5625 2 -4.4375 C 2.25 -4.3125 2.570312 -4.175781 2.96875 -4.03125 C 3.394531 -3.875 3.742188 -3.71875 4.015625 -3.5625 C 4.296875 -3.414062 4.53125 -3.207031 4.71875 -2.9375 C 4.90625 -2.675781 5 -2.34375 5 -1.9375 C 5 -1.519531 4.90625 -1.160156 4.71875 -0.859375 C 4.53125 -0.554688 4.269531 -0.320312 3.9375 -0.15625 C 3.613281 0 3.242188 0.078125 2.828125 0.078125 C 2.484375 0.078125 2.160156 0.0351562 1.859375 -0.046875 C 1.566406 -0.140625 1.359375 -0.21875 1.234375 -0.28125 C 1.109375 -0.351562 0.90625 -0.472656 0.625 -0.640625 L 0.71875 -0.828125 C 0.976562 -0.640625 1.296875 -0.472656 1.671875 -0.328125 C 2.046875 -0.179688 2.421875 -0.109375 2.796875 -0.109375 C 3.140625 -0.109375 3.460938 -0.175781 3.765625 -0.3125 C 4.066406 -0.445312 4.3125 -0.648438 4.5 -0.921875 C 4.695312 -1.203125 4.796875 -1.535156 4.796875 -1.921875 C 4.796875 -2.296875 4.707031 -2.601562 4.53125 -2.84375 C 4.351562 -3.09375 4.128906 -3.285156 3.859375 -3.421875 C 3.597656 -3.566406 3.257812 -3.71875 2.84375 -3.875 C 2.4375 -4.019531 2.101562 -4.160156 1.84375 -4.296875 C 1.59375 -4.429688 1.378906 -4.601562 1.203125 -4.8125 C 1.023438 -5.03125 0.9375 -5.296875 0.9375 -5.609375 C 0.9375 -5.921875 1.019531 -6.195312 1.1875 -6.4375 C 1.363281 -6.6875 1.597656 -6.878906 1.890625 -7.015625 C 2.179688 -7.148438 2.503906 -7.21875 2.859375 -7.21875 C 3.128906 -7.21875 3.4375 -7.175781 3.78125 -7.09375 C 4.125 -7.019531 4.414062 -6.925781 4.65625 -6.8125 Z M 4.5625 -6.65625 "/></g></g></g><g fill="#000000" fill-opacity="1"><g transform="translate(212.826938, 230.193705)"><g/></g></g><g fill="#000000" fill-opacity="1"><g transform="translate(221.005617, 230.193705)"><g><path d="M 6.0625 -7.171875 L 3.390625 -2.671875 L 3.390625 0 L 3.1875 0 L 3.1875 -2.671875 L 0.5 -7.171875 L 0.75 -7.171875 L 3.296875 -2.90625 L 5.828125 -7.171875 Z M 6.0625 -7.171875 "/></g></g></g><g fill="#000000" fill-opacity="1"><g transform="translate(232.679094, 230.193705)"><g/></g></g><g fill="#000000" fill-opacity="1"><g transform="translate(240.857768, 230.193705)"><g><path d="M 4.5625 -6.65625 C 4.332031 -6.757812 4.066406 -6.847656 3.765625 -6.921875 C 3.472656 -7.003906 3.175781 -7.046875 2.875 -7.046875 C 2.539062 -7.046875 2.238281 -6.984375 1.96875 -6.859375 C 1.707031 -6.734375 1.503906 -6.5625 1.359375 -6.34375 C 1.210938 -6.132812 1.140625 -5.898438 1.140625 -5.640625 C 1.140625 -5.359375 1.222656 -5.117188 1.390625 -4.921875 C 1.554688 -4.722656 1.757812 -4.5625 2 -4.4375 C 2.25 -4.3125 2.570312 -4.175781 2.96875 -4.03125 C 3.394531 -3.875 3.742188 -3.71875 4.015625 -3.5625 C 4.296875 -3.414062 4.53125 -3.207031 4.71875 -2.9375 C 4.90625 -2.675781 5 -2.34375 5 -1.9375 C 5 -1.519531 4.90625 -1.160156 4.71875 -0.859375 C 4.53125 -0.554688 4.269531 -0.320312 3.9375 -0.15625 C 3.613281 0 3.242188 0.078125 2.828125 0.078125 C 2.484375 0.078125 2.160156 0.0351562 1.859375 -0.046875 C 1.566406 -0.140625 1.359375 -0.21875 1.234375 -0.28125 C 1.109375 -0.351562 0.90625 -0.472656 0.625 -0.640625 L 0.71875 -0.828125 C 0.976562 -0.640625 1.296875 -0.472656 1.671875 -0.328125 C 2.046875 -0.179688 2.421875 -0.109375 2.796875 -0.109375 C 3.140625 -0.109375 3.460938 -0.175781 3.765625 -0.3125 C 4.066406 -0.445312 4.3125 -0.648438 4.5 -0.921875 C 4.695312 -1.203125 4.796875 -1.535156 4.796875 -1.921875 C 4.796875 -2.296875 4.707031 -2.601562 4.53125 -2.84375 C 4.351562 -3.09375 4.128906 -3.285156 3.859375 -3.421875 C 3.597656 -3.566406 3.257812 -3.71875 2.84375 -3.875 C 2.4375 -4.019531 2.101562 -4.160156 1.84375 -4.296875 C 1.59375 -4.429688 1.378906 -4.601562 1.203125 -4.8125 C 1.023438 -5.03125 0.9375 -5.296875 0.9375 -5.609375 C 0.9375 -5.921875 1.019531 -6.195312 1.1875 -6.4375 C 1.363281 -6.6875 1.597656 -6.878906 1.890625 -7.015625 C 2.179688 -7.148438 2.503906 -7.21875 2.859375 -7.21875 C 3.128906 -7.21875 3.4375 -7.175781 3.78125 -7.09375 C 4.125 -7.019531 4.414062 -6.925781 4.65625 -6.8125 Z M 4.5625 -6.65625 "/></g></g></g><g fill="#000000" fill-opacity="1"><g transform="translate(251.591124, 230.193705)"><g><path d="M 5.5 -7.171875 L 5.5 -6.984375 L 1.421875 -6.984375 L 1.421875 -3.71875 L 5.09375 -3.71875 L 5.09375 -3.53125 L 1.421875 -3.53125 L 1.421875 -0.1875 L 5.640625 -0.1875 L 5.640625 0 L 1.21875 0 L 1.21875 -7.171875 Z M 5.5 -7.171875 "/></g></g></g><g fill="#000000" fill-opacity="1"><g transform="translate(263.141977, 230.193705)"><g><path d="M 5.28125 0 L 3.296875 -3.328125 C 3.054688 -3.265625 2.8125 -3.234375 2.5625 -3.234375 L 1.421875 -3.234375 L 1.421875 0 L 1.21875 0 L 1.21875 -7.171875 L 2.6875 -7.171875 C 2.988281 -7.171875 3.300781 -7.101562 3.625 -6.96875 C 3.957031 -6.84375 4.226562 -6.632812 4.4375 -6.34375 C 4.65625 -6.0625 4.765625 -5.703125 4.765625 -5.265625 C 4.765625 -4.835938 4.660156 -4.453125 4.453125 -4.109375 C 4.253906 -3.765625 3.9375 -3.519531 3.5 -3.375 L 5.515625 0 Z M 2.53125 -3.4375 C 3.257812 -3.4375 3.78125 -3.613281 4.09375 -3.96875 C 4.40625 -4.320312 4.5625 -4.75 4.5625 -5.25 C 4.5625 -5.582031 4.476562 -5.878906 4.3125 -6.140625 C 4.144531 -6.410156 3.914062 -6.617188 3.625 -6.765625 C 3.34375 -6.910156 3.035156 -6.984375 2.703125 -6.984375 L 1.421875 -6.984375 L 1.421875 -3.4375 Z M 2.53125 -3.4375 "/></g></g></g><g fill="#000000" fill-opacity="1"><g transform="translate(274.549767, 230.193705)"><g><path d="M 6.515625 -7.171875 L 3.53125 0.328125 L 0.546875 -7.171875 L 0.78125 -7.171875 L 3.546875 -0.109375 L 6.296875 -7.171875 Z M 6.515625 -7.171875 "/></g></g></g><g fill="#000000" fill-opacity="1"><g transform="translate(286.723957, 230.193705)"><g><path d="M 1.421875 -7.171875 L 1.421875 0 L 1.21875 0 L 1.21875 -7.171875 Z M 1.421875 -7.171875 "/></g></g></g><g fill="#000000" fill-opacity="1"><g transform="translate(294.463241, 230.193705)"><g><path d="M 6.296875 -0.4375 C 5.710938 -0.09375 5.078125 0.078125 4.390625 0.078125 C 3.679688 0.078125 3.050781 -0.0820312 2.5 -0.40625 C 1.945312 -0.738281 1.515625 -1.179688 1.203125 -1.734375 C 0.898438 -2.285156 0.75 -2.890625 0.75 -3.546875 C 0.75 -4.222656 0.910156 -4.847656 1.234375 -5.421875 C 1.566406 -5.992188 2.007812 -6.441406 2.5625 -6.765625 C 3.125 -7.085938 3.738281 -7.25 4.40625 -7.25 C 5.082031 -7.25 5.710938 -7.078125 6.296875 -6.734375 L 6.1875 -6.5625 C 5.625 -6.894531 5.03125 -7.0625 4.40625 -7.0625 C 3.78125 -7.0625 3.203125 -6.90625 2.671875 -6.59375 C 2.148438 -6.28125 1.734375 -5.851562 1.421875 -5.3125 C 1.109375 -4.769531 0.953125 -4.175781 0.953125 -3.53125 C 0.953125 -2.914062 1.09375 -2.347656 1.375 -1.828125 C 1.664062 -1.304688 2.070312 -0.890625 2.59375 -0.578125 C 3.113281 -0.265625 3.710938 -0.109375 4.390625 -0.109375 C 5.015625 -0.109375 5.609375 -0.273438 6.171875 -0.609375 Z M 6.296875 -0.4375 "/></g></g></g><g fill="#000000" fill-opacity="1"><g transform="translate(306.616991, 230.193705)"><g><path d="M 1.421875 -7.171875 L 1.421875 0 L 1.21875 0 L 1.21875 -7.171875 Z M 1.421875 -7.171875 "/></g></g></g><g fill="#000000" fill-opacity="1"><g transform="translate(314.356275, 230.193705)"><g><path d="M 0.75 -3.578125 C 0.75 -4.234375 0.910156 -4.84375 1.234375 -5.40625 C 1.566406 -5.976562 2.015625 -6.425781 2.578125 -6.75 C 3.140625 -7.082031 3.753906 -7.25 4.421875 -7.25 C 5.078125 -7.25 5.6875 -7.082031 6.25 -6.75 C 6.820312 -6.425781 7.269531 -5.976562 7.59375 -5.40625 C 7.925781 -4.84375 8.09375 -4.234375 8.09375 -3.578125 C 8.09375 -2.910156 7.925781 -2.296875 7.59375 -1.734375 C 7.269531 -1.179688 6.820312 -0.738281 6.25 -0.40625 C 5.6875 -0.0820312 5.078125 0.078125 4.421875 0.078125 C 3.742188 0.078125 3.125 -0.078125 2.5625 -0.390625 C 2.007812 -0.710938 1.566406 -1.148438 1.234375 -1.703125 C 0.910156 -2.253906 0.75 -2.878906 0.75 -3.578125 Z M 0.953125 -3.5625 C 0.953125 -2.945312 1.109375 -2.375 1.421875 -1.84375 C 1.734375 -1.3125 2.148438 -0.890625 2.671875 -0.578125 C 3.203125 -0.265625 3.773438 -0.109375 4.390625 -0.109375 C 5.015625 -0.109375 5.597656 -0.265625 6.140625 -0.578125 C 6.679688 -0.890625 7.109375 -1.3125 7.421875 -1.84375 C 7.734375 -2.375 7.890625 -2.953125 7.890625 -3.578125 C 7.890625 -4.191406 7.734375 -4.765625 7.421875 -5.296875 C 7.109375 -5.835938 6.679688 -6.265625 6.140625 -6.578125 C 5.609375 -6.898438 5.035156 -7.0625 4.421875 -7.0625 C 3.773438 -7.0625 3.1875 -6.898438 2.65625 -6.578125 C 2.132812 -6.253906 1.71875 -5.820312 1.40625 -5.28125 C 1.101562 -4.75 0.953125 -4.175781 0.953125 -3.5625 Z M 0.953125 -3.5625 "/></g></g></g><g fill="#000000" fill-opacity="1"><g transform="translate(328.298291, 230.193705)"><g><path d="M 4.5625 -6.65625 C 4.332031 -6.757812 4.066406 -6.847656 3.765625 -6.921875 C 3.472656 -7.003906 3.175781 -7.046875 2.875 -7.046875 C 2.539062 -7.046875 2.238281 -6.984375 1.96875 -6.859375 C 1.707031 -6.734375 1.503906 -6.5625 1.359375 -6.34375 C 1.210938 -6.132812 1.140625 -5.898438 1.140625 -5.640625 C 1.140625 -5.359375 1.222656 -5.117188 1.390625 -4.921875 C 1.554688 -4.722656 1.757812 -4.5625 2 -4.4375 C 2.25 -4.3125 2.570312 -4.175781 2.96875 -4.03125 C 3.394531 -3.875 3.742188 -3.71875 4.015625 -3.5625 C 4.296875 -3.414062 4.53125 -3.207031 4.71875 -2.9375 C 4.90625 -2.675781 5 -2.34375 5 -1.9375 C 5 -1.519531 4.90625 -1.160156 4.71875 -0.859375 C 4.53125 -0.554688 4.269531 -0.320312 3.9375 -0.15625 C 3.613281 0 3.242188 0.078125 2.828125 0.078125 C 2.484375 0.078125 2.160156 0.0351562 1.859375 -0.046875 C 1.566406 -0.140625 1.359375 -0.21875 1.234375 -0.28125 C 1.109375 -0.351562 0.90625 -0.472656 0.625 -0.640625 L 0.71875 -0.828125 C 0.976562 -0.640625 1.296875 -0.472656 1.671875 -0.328125 C 2.046875 -0.179688 2.421875 -0.109375 2.796875 -0.109375 C 3.140625 -0.109375 3.460938 -0.175781 3.765625 -0.3125 C 4.066406 -0.445312 4.3125 -0.648438 4.5 -0.921875 C 4.695312 -1.203125 4.796875 -1.535156 4.796875 -1.921875 C 4.796875 -2.296875 4.707031 -2.601562 4.53125 -2.84375 C 4.351562 -3.09375 4.128906 -3.285156 3.859375 -3.421875 C 3.597656 -3.566406 3.257812 -3.71875 2.84375 -3.875 C 2.4375 -4.019531 2.101562 -4.160156 1.84375 -4.296875 C 1.59375 -4.429688 1.378906 -4.601562 1.203125 -4.8125 C 1.023438 -5.03125 0.9375 -5.296875 0.9375 -5.609375 C 0.9375 -5.921875 1.019531 -6.195312 1.1875 -6.4375 C 1.363281 -6.6875 1.597656 -6.878906 1.890625 -7.015625 C 2.179688 -7.148438 2.503906 -7.21875 2.859375 -7.21875 C 3.128906 -7.21875 3.4375 -7.175781 3.78125 -7.09375 C 4.125 -7.019531 4.414062 -6.925781 4.65625 -6.8125 Z M 4.5625 -6.65625 "/></g></g></g></svg>