<svg xmlns="http://www.w3.org/2000/svg" xmlns:xlink="http://www.w3.org/1999/xlink" width="500" zoomAndPan="magnify" viewBox="0 0 375 374.999991" height="500" preserveAspectRatio="xMidYMid meet" version="1.0"><defs><g/><clipPath id="id1"><path d="M 166.945312 167.5 L 170.695312 167.5 L 170.695312 209.5 L 166.945312 209.5 Z M 166.945312 167.5 " clip-rule="nonzero"/></clipPath></defs><g clip-path="url(#id1)"><path fill="#a6a6a6" d="M 166.957031 136.847656 L 166.957031 222.347656 L 170.683594 222.347656 L 170.683594 136.847656 Z M 166.957031 136.847656 " fill-opacity="1" fill-rule="nonzero"/></g><g fill="#ffffff" fill-opacity="1"><g transform="translate(187.499992, 163.129516)"><g><path d="M 17.046875 -9.09375 C 17.046875 -6.15625 16.207031 -3.90625 14.53125 -2.34375 C 12.863281 -0.78125 10.453125 0 7.296875 0 L 2.25 0 L 2.25 -17.84375 L 7.84375 -17.84375 C 10.757812 -17.84375 13.019531 -17.070312 14.625 -15.53125 C 16.238281 -14 17.046875 -11.851562 17.046875 -9.09375 Z M 13.125 -9 C 13.125 -12.832031 11.429688 -14.75 8.046875 -14.75 L 6.03125 -14.75 L 6.03125 -3.125 L 7.65625 -3.125 C 11.300781 -3.125 13.125 -5.082031 13.125 -9 Z M 13.125 -9 "/></g></g></g><g fill="#ffffff" fill-opacity="1"><g transform="translate(206.002959, 163.129516)"><g><path d="M 18.4375 -8.953125 C 18.4375 -5.992188 17.703125 -3.71875 16.234375 -2.125 C 14.773438 -0.539062 12.679688 0.25 9.953125 0.25 C 7.210938 0.25 5.109375 -0.539062 3.640625 -2.125 C 2.179688 -3.71875 1.453125 -6 1.453125 -8.96875 C 1.453125 -11.9375 2.1875 -14.203125 3.65625 -15.765625 C 5.125 -17.335938 7.226562 -18.125 9.96875 -18.125 C 12.71875 -18.125 14.816406 -17.332031 16.265625 -15.75 C 17.710938 -14.175781 18.4375 -11.910156 18.4375 -8.953125 Z M 5.421875 -8.953125 C 5.421875 -6.953125 5.796875 -5.445312 6.546875 -4.4375 C 7.304688 -3.4375 8.441406 -2.9375 9.953125 -2.9375 C 12.972656 -2.9375 14.484375 -4.941406 14.484375 -8.953125 C 14.484375 -12.972656 12.976562 -14.984375 9.96875 -14.984375 C 8.46875 -14.984375 7.332031 -14.472656 6.5625 -13.453125 C 5.800781 -12.441406 5.421875 -10.941406 5.421875 -8.953125 Z M 5.421875 -8.953125 "/></g></g></g><g fill="#ffffff" fill-opacity="1"><g transform="translate(225.89731, 163.129516)"><g><path d="M 18.078125 0 L 13.265625 0 L 5.5 -13.5 L 5.390625 -13.5 C 5.546875 -11.113281 5.625 -9.414062 5.625 -8.40625 L 5.625 0 L 2.25 0 L 2.25 -17.84375 L 7.015625 -17.84375 L 14.765625 -4.484375 L 14.859375 -4.484375 C 14.734375 -6.796875 14.671875 -8.4375 14.671875 -9.40625 L 14.671875 -17.84375 L 18.078125 -17.84375 Z M 18.078125 0 "/></g></g></g><g fill="#ffffff" fill-opacity="1"><g transform="translate(246.218846, 163.129516)"><g><path d="M 18.4375 -8.953125 C 18.4375 -5.992188 17.703125 -3.71875 16.234375 -2.125 C 14.773438 -0.539062 12.679688 0.25 9.953125 0.25 C 7.210938 0.25 5.109375 -0.539062 3.640625 -2.125 C 2.179688 -3.71875 1.453125 -6 1.453125 -8.96875 C 1.453125 -11.9375 2.1875 -14.203125 3.65625 -15.765625 C 5.125 -17.335938 7.226562 -18.125 9.96875 -18.125 C 12.71875 -18.125 14.816406 -17.332031 16.265625 -15.75 C 17.710938 -14.175781 18.4375 -11.910156 18.4375 -8.953125 Z M 5.421875 -8.953125 C 5.421875 -6.953125 5.796875 -5.445312 6.546875 -4.4375 C 7.304688 -3.4375 8.441406 -2.9375 9.953125 -2.9375 C 12.972656 -2.9375 14.484375 -4.941406 14.484375 -8.953125 C 14.484375 -12.972656 12.976562 -14.984375 9.96875 -14.984375 C 8.46875 -14.984375 7.332031 -14.472656 6.5625 -13.453125 C 5.800781 -12.441406 5.421875 -10.941406 5.421875 -8.953125 Z M 5.421875 -8.953125 "/></g></g></g><g fill="#ffffff" fill-opacity="1"><g transform="translate(266.113197, 163.129516)"><g><path d="M 12.78125 -4.953125 C 12.78125 -3.347656 12.195312 -2.078125 11.03125 -1.140625 C 9.875 -0.210938 8.265625 0.25 6.203125 0.25 C 4.296875 0.25 2.609375 -0.109375 1.140625 -0.828125 L 1.140625 -4.34375 C 2.347656 -3.8125 3.367188 -3.429688 4.203125 -3.203125 C 5.035156 -2.984375 5.800781 -2.875 6.5 -2.875 C 7.320312 -2.875 7.953125 -3.03125 8.390625 -3.34375 C 8.835938 -3.664062 9.0625 -4.140625 9.0625 -4.765625 C 9.0625 -5.117188 8.960938 -5.429688 8.765625 -5.703125 C 8.578125 -5.972656 8.289062 -6.234375 7.90625 -6.484375 C 7.53125 -6.742188 6.765625 -7.148438 5.609375 -7.703125 C 4.515625 -8.210938 3.691406 -8.703125 3.140625 -9.171875 C 2.597656 -9.648438 2.164062 -10.203125 1.84375 -10.828125 C 1.519531 -11.453125 1.359375 -12.1875 1.359375 -13.03125 C 1.359375 -14.601562 1.890625 -15.84375 2.953125 -16.75 C 4.023438 -17.65625 5.503906 -18.109375 7.390625 -18.109375 C 8.328125 -18.109375 9.210938 -17.992188 10.046875 -17.765625 C 10.890625 -17.546875 11.773438 -17.238281 12.703125 -16.84375 L 11.46875 -13.90625 C 10.519531 -14.289062 9.734375 -14.5625 9.109375 -14.71875 C 8.484375 -14.875 7.875 -14.953125 7.28125 -14.953125 C 6.5625 -14.953125 6.007812 -14.785156 5.625 -14.453125 C 5.238281 -14.117188 5.046875 -13.679688 5.046875 -13.140625 C 5.046875 -12.804688 5.125 -12.515625 5.28125 -12.265625 C 5.4375 -12.023438 5.679688 -11.785156 6.015625 -11.546875 C 6.359375 -11.316406 7.160156 -10.898438 8.421875 -10.296875 C 10.085938 -9.503906 11.226562 -8.707031 11.84375 -7.90625 C 12.46875 -7.101562 12.78125 -6.117188 12.78125 -4.953125 Z M 12.78125 -4.953125 "/></g></g></g><g fill="#ffffff" fill-opacity="1"><g transform="translate(279.880575, 163.129516)"><g><path d="M 18.4375 -8.953125 C 18.4375 -5.992188 17.703125 -3.71875 16.234375 -2.125 C 14.773438 -0.539062 12.679688 0.25 9.953125 0.25 C 7.210938 0.25 5.109375 -0.539062 3.640625 -2.125 C 2.179688 -3.71875 1.453125 -6 1.453125 -8.96875 C 1.453125 -11.9375 2.1875 -14.203125 3.65625 -15.765625 C 5.125 -17.335938 7.226562 -18.125 9.96875 -18.125 C 12.71875 -18.125 14.816406 -17.332031 16.265625 -15.75 C 17.710938 -14.175781 18.4375 -11.910156 18.4375 -8.953125 Z M 5.421875 -8.953125 C 5.421875 -6.953125 5.796875 -5.445312 6.546875 -4.4375 C 7.304688 -3.4375 8.441406 -2.9375 9.953125 -2.9375 C 12.972656 -2.9375 14.484375 -4.941406 14.484375 -8.953125 C 14.484375 -12.972656 12.976562 -14.984375 9.96875 -14.984375 C 8.46875 -14.984375 7.332031 -14.472656 6.5625 -13.453125 C 5.800781 -12.441406 5.421875 -10.941406 5.421875 -8.953125 Z M 5.421875 -8.953125 "/></g></g></g><g fill="#ffffff" fill-opacity="1"><g transform="translate(299.774926, 163.129516)"><g/></g></g><g fill="#ffffff" fill-opacity="1"><g transform="translate(306.268052, 163.129516)"><g><path d="M 18.75 0 L 14.140625 0 L 12.75 -1.375 C 11.1875 -0.289062 9.425781 0.25 7.46875 0.25 C 5.488281 0.25 3.914062 -0.203125 2.75 -1.109375 C 1.582031 -2.023438 1 -3.265625 1 -4.828125 C 1 -5.941406 1.242188 -6.890625 1.734375 -7.671875 C 2.234375 -8.453125 3.078125 -9.1875 4.265625 -9.875 C 3.660156 -10.570312 3.21875 -11.238281 2.9375 -11.875 C 2.664062 -12.519531 2.53125 -13.222656 2.53125 -13.984375 C 2.53125 -15.210938 3.003906 -16.207031 3.953125 -16.96875 C 4.898438 -17.726562 6.164062 -18.109375 7.75 -18.109375 C 9.257812 -18.109375 10.46875 -17.753906 11.375 -17.046875 C 12.289062 -16.335938 12.75 -15.394531 12.75 -14.21875 C 12.75 -13.25 12.46875 -12.363281 11.90625 -11.5625 C 11.34375 -10.757812 10.4375 -10 9.1875 -9.28125 L 12.640625 -5.890625 C 13.222656 -6.847656 13.722656 -8.078125 14.140625 -9.578125 L 18.03125 -9.578125 C 17.738281 -8.472656 17.332031 -7.394531 16.8125 -6.34375 C 16.300781 -5.300781 15.722656 -4.378906 15.078125 -3.578125 Z M 4.921875 -5.171875 C 4.921875 -4.472656 5.179688 -3.914062 5.703125 -3.5 C 6.234375 -3.082031 6.910156 -2.875 7.734375 -2.875 C 8.753906 -2.875 9.675781 -3.125 10.5 -3.625 L 6.453125 -7.65625 C 5.972656 -7.289062 5.597656 -6.910156 5.328125 -6.515625 C 5.054688 -6.128906 4.921875 -5.679688 4.921875 -5.171875 Z M 9.296875 -13.828125 C 9.296875 -14.265625 9.148438 -14.601562 8.859375 -14.84375 C 8.566406 -15.09375 8.191406 -15.21875 7.734375 -15.21875 C 7.179688 -15.21875 6.75 -15.085938 6.4375 -14.828125 C 6.125 -14.566406 5.96875 -14.195312 5.96875 -13.71875 C 5.96875 -13 6.351562 -12.210938 7.125 -11.359375 C 7.820312 -11.742188 8.359375 -12.125 8.734375 -12.5 C 9.109375 -12.882812 9.296875 -13.328125 9.296875 -13.828125 Z M 9.296875 -13.828125 "/></g></g></g><g fill="#ffffff" fill-opacity="1"><g transform="translate(187.499992, 187.879514)"><g><path d="M 13.171875 0 L 11.875 -4.25 L 5.375 -4.25 L 4.078125 0 L 0 0 L 6.296875 -17.921875 L 10.921875 -17.921875 L 17.25 0 Z M 10.96875 -7.421875 C 9.78125 -11.273438 9.109375 -13.453125 8.953125 -13.953125 C 8.804688 -14.453125 8.695312 -14.851562 8.625 -15.15625 C 8.363281 -14.113281 7.597656 -11.535156 6.328125 -7.421875 Z M 10.96875 -7.421875 "/></g></g></g><g fill="#ffffff" fill-opacity="1"><g transform="translate(204.745837, 187.879514)"><g><path d="M 12.78125 -4.953125 C 12.78125 -3.347656 12.195312 -2.078125 11.03125 -1.140625 C 9.875 -0.210938 8.265625 0.25 6.203125 0.25 C 4.296875 0.25 2.609375 -0.109375 1.140625 -0.828125 L 1.140625 -4.34375 C 2.347656 -3.8125 3.367188 -3.429688 4.203125 -3.203125 C 5.035156 -2.984375 5.800781 -2.875 6.5 -2.875 C 7.320312 -2.875 7.953125 -3.03125 8.390625 -3.34375 C 8.835938 -3.664062 9.0625 -4.140625 9.0625 -4.765625 C 9.0625 -5.117188 8.960938 -5.429688 8.765625 -5.703125 C 8.578125 -5.972656 8.289062 -6.234375 7.90625 -6.484375 C 7.53125 -6.742188 6.765625 -7.148438 5.609375 -7.703125 C 4.515625 -8.210938 3.691406 -8.703125 3.140625 -9.171875 C 2.597656 -9.648438 2.164062 -10.203125 1.84375 -10.828125 C 1.519531 -11.453125 1.359375 -12.1875 1.359375 -13.03125 C 1.359375 -14.601562 1.890625 -15.84375 2.953125 -16.75 C 4.023438 -17.65625 5.503906 -18.109375 7.390625 -18.109375 C 8.328125 -18.109375 9.210938 -17.992188 10.046875 -17.765625 C 10.890625 -17.546875 11.773438 -17.238281 12.703125 -16.84375 L 11.46875 -13.90625 C 10.519531 -14.289062 9.734375 -14.5625 9.109375 -14.71875 C 8.484375 -14.875 7.875 -14.953125 7.28125 -14.953125 C 6.5625 -14.953125 6.007812 -14.785156 5.625 -14.453125 C 5.238281 -14.117188 5.046875 -13.679688 5.046875 -13.140625 C 5.046875 -12.804688 5.125 -12.515625 5.28125 -12.265625 C 5.4375 -12.023438 5.679688 -11.785156 6.015625 -11.546875 C 6.359375 -11.316406 7.160156 -10.898438 8.421875 -10.296875 C 10.085938 -9.503906 11.226562 -8.707031 11.84375 -7.90625 C 12.46875 -7.101562 12.78125 -6.117188 12.78125 -4.953125 Z M 12.78125 -4.953125 "/></g></g></g><g fill="#ffffff" fill-opacity="1"><g transform="translate(218.513215, 187.879514)"><g><path d="M 18.4375 -8.953125 C 18.4375 -5.992188 17.703125 -3.71875 16.234375 -2.125 C 14.773438 -0.539062 12.679688 0.25 9.953125 0.25 C 7.210938 0.25 5.109375 -0.539062 3.640625 -2.125 C 2.179688 -3.71875 1.453125 -6 1.453125 -8.96875 C 1.453125 -11.9375 2.1875 -14.203125 3.65625 -15.765625 C 5.125 -17.335938 7.226562 -18.125 9.96875 -18.125 C 12.71875 -18.125 14.816406 -17.332031 16.265625 -15.75 C 17.710938 -14.175781 18.4375 -11.910156 18.4375 -8.953125 Z M 5.421875 -8.953125 C 5.421875 -6.953125 5.796875 -5.445312 6.546875 -4.4375 C 7.304688 -3.4375 8.441406 -2.9375 9.953125 -2.9375 C 12.972656 -2.9375 14.484375 -4.941406 14.484375 -8.953125 C 14.484375 -12.972656 12.976562 -14.984375 9.96875 -14.984375 C 8.46875 -14.984375 7.332031 -14.472656 6.5625 -13.453125 C 5.800781 -12.441406 5.421875 -10.941406 5.421875 -8.953125 Z M 5.421875 -8.953125 "/></g></g></g><g fill="#ffffff" fill-opacity="1"><g transform="translate(238.407566, 187.879514)"><g><path d="M 9.828125 -14.953125 C 8.398438 -14.953125 7.296875 -14.414062 6.515625 -13.34375 C 5.734375 -12.28125 5.34375 -10.789062 5.34375 -8.875 C 5.34375 -4.894531 6.835938 -2.90625 9.828125 -2.90625 C 11.078125 -2.90625 12.59375 -3.21875 14.375 -3.84375 L 14.375 -0.671875 C 12.914062 -0.0546875 11.28125 0.25 9.46875 0.25 C 6.875 0.25 4.890625 -0.535156 3.515625 -2.109375 C 2.140625 -3.691406 1.453125 -5.957031 1.453125 -8.90625 C 1.453125 -10.757812 1.789062 -12.382812 2.46875 -13.78125 C 3.144531 -15.175781 4.113281 -16.242188 5.375 -16.984375 C 6.644531 -17.734375 8.128906 -18.109375 9.828125 -18.109375 C 11.554688 -18.109375 13.296875 -17.6875 15.046875 -16.84375 L 13.828125 -13.765625 C 13.160156 -14.085938 12.488281 -14.363281 11.8125 -14.59375 C 11.132812 -14.832031 10.472656 -14.953125 9.828125 -14.953125 Z M 9.828125 -14.953125 "/></g></g></g><g fill="#ffffff" fill-opacity="1"><g transform="translate(254.335258, 187.879514)"><g><path d="M 2.25 0 L 2.25 -17.84375 L 6.03125 -17.84375 L 6.03125 0 Z M 2.25 0 "/></g></g></g><g fill="#ffffff" fill-opacity="1"><g transform="translate(262.610331, 187.879514)"><g><path d="M 13.171875 0 L 11.875 -4.25 L 5.375 -4.25 L 4.078125 0 L 0 0 L 6.296875 -17.921875 L 10.921875 -17.921875 L 17.25 0 Z M 10.96875 -7.421875 C 9.78125 -11.273438 9.109375 -13.453125 8.953125 -13.953125 C 8.804688 -14.453125 8.695312 -14.851562 8.625 -15.15625 C 8.363281 -14.113281 7.597656 -11.535156 6.328125 -7.421875 Z M 10.96875 -7.421875 "/></g></g></g><g fill="#ffffff" fill-opacity="1"><g transform="translate(279.856176, 187.879514)"><g><path d="M 17.046875 -9.09375 C 17.046875 -6.15625 16.207031 -3.90625 14.53125 -2.34375 C 12.863281 -0.78125 10.453125 0 7.296875 0 L 2.25 0 L 2.25 -17.84375 L 7.84375 -17.84375 C 10.757812 -17.84375 13.019531 -17.070312 14.625 -15.53125 C 16.238281 -14 17.046875 -11.851562 17.046875 -9.09375 Z M 13.125 -9 C 13.125 -12.832031 11.429688 -14.75 8.046875 -14.75 L 6.03125 -14.75 L 6.03125 -3.125 L 7.65625 -3.125 C 11.300781 -3.125 13.125 -5.082031 13.125 -9 Z M 13.125 -9 "/></g></g></g><g fill="#ffffff" fill-opacity="1"><g transform="translate(298.359142, 187.879514)"><g><path d="M 18.4375 -8.953125 C 18.4375 -5.992188 17.703125 -3.71875 16.234375 -2.125 C 14.773438 -0.539062 12.679688 0.25 9.953125 0.25 C 7.210938 0.25 5.109375 -0.539062 3.640625 -2.125 C 2.179688 -3.71875 1.453125 -6 1.453125 -8.96875 C 1.453125 -11.9375 2.1875 -14.203125 3.65625 -15.765625 C 5.125 -17.335938 7.226562 -18.125 9.96875 -18.125 C 12.71875 -18.125 14.816406 -17.332031 16.265625 -15.75 C 17.710938 -14.175781 18.4375 -11.910156 18.4375 -8.953125 Z M 5.421875 -8.953125 C 5.421875 -6.953125 5.796875 -5.445312 6.546875 -4.4375 C 7.304688 -3.4375 8.441406 -2.9375 9.953125 -2.9375 C 12.972656 -2.9375 14.484375 -4.941406 14.484375 -8.953125 C 14.484375 -12.972656 12.976562 -14.984375 9.96875 -14.984375 C 8.46875 -14.984375 7.332031 -14.472656 6.5625 -13.453125 C 5.800781 -12.441406 5.421875 -10.941406 5.421875 -8.953125 Z M 5.421875 -8.953125 "/></g></g></g><g fill="#ffffff" fill-opacity="1"><g transform="translate(318.253493, 187.879514)"><g><path d="M 12.78125 -4.953125 C 12.78125 -3.347656 12.195312 -2.078125 11.03125 -1.140625 C 9.875 -0.210938 8.265625 0.25 6.203125 0.25 C 4.296875 0.25 2.609375 -0.109375 1.140625 -0.828125 L 1.140625 -4.34375 C 2.347656 -3.8125 3.367188 -3.429688 4.203125 -3.203125 C 5.035156 -2.984375 5.800781 -2.875 6.5 -2.875 C 7.320312 -2.875 7.953125 -3.03125 8.390625 -3.34375 C 8.835938 -3.664062 9.0625 -4.140625 9.0625 -4.765625 C 9.0625 -5.117188 8.960938 -5.429688 8.765625 -5.703125 C 8.578125 -5.972656 8.289062 -6.234375 7.90625 -6.484375 C 7.53125 -6.742188 6.765625 -7.148438 5.609375 -7.703125 C 4.515625 -8.210938 3.691406 -8.703125 3.140625 -9.171875 C 2.597656 -9.648438 2.164062 -10.203125 1.84375 -10.828125 C 1.519531 -11.453125 1.359375 -12.1875 1.359375 -13.03125 C 1.359375 -14.601562 1.890625 -15.84375 2.953125 -16.75 C 4.023438 -17.65625 5.503906 -18.109375 7.390625 -18.109375 C 8.328125 -18.109375 9.210938 -17.992188 10.046875 -17.765625 C 10.890625 -17.546875 11.773438 -17.238281 12.703125 -16.84375 L 11.46875 -13.90625 C 10.519531 -14.289062 9.734375 -14.5625 9.109375 -14.71875 C 8.484375 -14.875 7.875 -14.953125 7.28125 -14.953125 C 6.5625 -14.953125 6.007812 -14.785156 5.625 -14.453125 C 5.238281 -14.117188 5.046875 -13.679688 5.046875 -13.140625 C 5.046875 -12.804688 5.125 -12.515625 5.28125 -12.265625 C 5.4375 -12.023438 5.679688 -11.785156 6.015625 -11.546875 C 6.359375 -11.316406 7.160156 -10.898438 8.421875 -10.296875 C 10.085938 -9.503906 11.226562 -8.707031 11.84375 -7.90625 C 12.46875 -7.101562 12.78125 -6.117188 12.78125 -4.953125 Z M 12.78125 -4.953125 "/></g></g></g><g fill="#ffffff" fill-opacity="1"><g transform="translate(187.499992, 204.554312)"><g><path d="M 2.84375 -9.734375 C 3.601562 -9.734375 4.160156 -9.515625 4.515625 -9.078125 C 4.867188 -8.648438 5.046875 -8.0625 5.046875 -7.3125 L 5.046875 -2.40625 C 5.046875 -1.65625 4.867188 -1.066406 4.515625 -0.640625 C 4.160156 -0.210938 3.601562 0 2.84375 0 L 0.5625 0 L 0.5625 -9.734375 Z M 2.828125 -0.984375 C 3.210938 -0.984375 3.5 -1.101562 3.6875 -1.34375 C 3.882812 -1.582031 3.984375 -1.921875 3.984375 -2.359375 L 3.984375 -7.375 C 3.984375 -7.8125 3.882812 -8.148438 3.6875 -8.390625 C 3.5 -8.628906 3.207031 -8.75 2.8125 -8.75 L 1.640625 -8.75 L 1.640625 -0.984375 Z M 2.828125 -0.984375 "/></g></g></g><g fill="#ffffff" fill-opacity="1"><g transform="translate(195.095353, 204.554312)"><g><path d="M 4.015625 -5.421875 L 4.015625 -4.453125 L 1.640625 -4.453125 L 1.640625 -0.984375 L 4.5625 -0.984375 L 4.5625 0 L 0.5625 0 L 0.5625 -9.734375 L 4.5625 -9.734375 L 4.5625 -8.75 L 1.640625 -8.75 L 1.640625 -5.421875 Z M 4.015625 -5.421875 "/></g></g></g><g fill="#ffffff" fill-opacity="1"><g transform="translate(202.189944, 204.554312)"><g><path d="M 2.59375 -9.828125 C 3.34375 -9.828125 3.890625 -9.609375 4.234375 -9.171875 C 4.585938 -8.734375 4.765625 -8.140625 4.765625 -7.390625 L 4.765625 -7.140625 L 3.734375 -7.140625 L 3.734375 -7.453125 C 3.734375 -7.898438 3.644531 -8.242188 3.46875 -8.484375 C 3.300781 -8.722656 3.019531 -8.84375 2.625 -8.84375 C 2.238281 -8.84375 1.957031 -8.722656 1.78125 -8.484375 C 1.601562 -8.242188 1.515625 -7.90625 1.515625 -7.46875 C 1.515625 -7.101562 1.59375 -6.785156 1.75 -6.515625 C 1.914062 -6.253906 2.117188 -6.007812 2.359375 -5.78125 C 2.597656 -5.550781 2.859375 -5.328125 3.140625 -5.109375 C 3.429688 -4.890625 3.695312 -4.648438 3.9375 -4.390625 C 4.175781 -4.128906 4.375 -3.832031 4.53125 -3.5 C 4.695312 -3.175781 4.78125 -2.789062 4.78125 -2.34375 C 4.78125 -1.59375 4.601562 -1 4.25 -0.5625 C 3.894531 -0.125 3.34375 0.09375 2.59375 0.09375 C 1.832031 0.09375 1.273438 -0.125 0.921875 -0.5625 C 0.578125 -1 0.40625 -1.59375 0.40625 -2.34375 L 0.40625 -2.890625 L 1.421875 -2.890625 L 1.421875 -2.28125 C 1.421875 -1.832031 1.507812 -1.488281 1.6875 -1.25 C 1.875 -1.007812 2.164062 -0.890625 2.5625 -0.890625 C 2.945312 -0.890625 3.234375 -1.007812 3.421875 -1.25 C 3.609375 -1.488281 3.703125 -1.832031 3.703125 -2.28125 C 3.703125 -2.644531 3.617188 -2.957031 3.453125 -3.21875 C 3.296875 -3.476562 3.09375 -3.722656 2.84375 -3.953125 C 2.601562 -4.179688 2.34375 -4.40625 2.0625 -4.625 C 1.789062 -4.84375 1.535156 -5.082031 1.296875 -5.34375 C 1.054688 -5.601562 0.851562 -5.894531 0.6875 -6.21875 C 0.519531 -6.550781 0.4375 -6.941406 0.4375 -7.390625 C 0.4375 -8.148438 0.613281 -8.742188 0.96875 -9.171875 C 1.320312 -9.609375 1.863281 -9.828125 2.59375 -9.828125 Z M 2.59375 -9.828125 "/></g></g></g><g fill="#ffffff" fill-opacity="1"><g transform="translate(209.451458, 204.554312)"><g><path d="M 2.84375 -9.734375 C 3.601562 -9.734375 4.160156 -9.515625 4.515625 -9.078125 C 4.867188 -8.648438 5.046875 -8.0625 5.046875 -7.3125 L 5.046875 -2.40625 C 5.046875 -1.65625 4.867188 -1.066406 4.515625 -0.640625 C 4.160156 -0.210938 3.601562 0 2.84375 0 L 0.5625 0 L 0.5625 -9.734375 Z M 2.828125 -0.984375 C 3.210938 -0.984375 3.5 -1.101562 3.6875 -1.34375 C 3.882812 -1.582031 3.984375 -1.921875 3.984375 -2.359375 L 3.984375 -7.375 C 3.984375 -7.8125 3.882812 -8.148438 3.6875 -8.390625 C 3.5 -8.628906 3.207031 -8.75 2.8125 -8.75 L 1.640625 -8.75 L 1.640625 -0.984375 Z M 2.828125 -0.984375 "/></g></g></g><g fill="#ffffff" fill-opacity="1"><g transform="translate(217.046818, 204.554312)"><g><path d="M 4.015625 -5.421875 L 4.015625 -4.453125 L 1.640625 -4.453125 L 1.640625 -0.984375 L 4.5625 -0.984375 L 4.5625 0 L 0.5625 0 L 0.5625 -9.734375 L 4.5625 -9.734375 L 4.5625 -8.75 L 1.640625 -8.75 L 1.640625 -5.421875 Z M 4.015625 -5.421875 "/></g></g></g><g fill="#ffffff" fill-opacity="1"><g transform="translate(224.141408, 204.554312)"><g/></g></g><g fill="#ffffff" fill-opacity="1"><g transform="translate(228.384428, 204.554312)"><g><path d="M 2.734375 -9.828125 C 3.492188 -9.828125 4.050781 -9.601562 4.40625 -9.15625 C 4.757812 -8.71875 4.9375 -8.125 4.9375 -7.375 C 4.9375 -6.882812 4.851562 -6.441406 4.6875 -6.046875 C 4.53125 -5.648438 4.328125 -5.28125 4.078125 -4.9375 C 3.835938 -4.601562 3.570312 -4.285156 3.28125 -3.984375 C 3 -3.691406 2.734375 -3.394531 2.484375 -3.09375 C 2.242188 -2.800781 2.039062 -2.492188 1.875 -2.171875 C 1.707031 -1.859375 1.625 -1.515625 1.625 -1.140625 L 1.625 -0.984375 L 4.828125 -0.984375 L 4.828125 0 L 0.5625 0 L 0.5625 -0.828125 C 0.5625 -1.347656 0.640625 -1.804688 0.796875 -2.203125 C 0.960938 -2.609375 1.164062 -2.972656 1.40625 -3.296875 C 1.65625 -3.628906 1.921875 -3.941406 2.203125 -4.234375 C 2.484375 -4.523438 2.742188 -4.820312 2.984375 -5.125 C 3.234375 -5.4375 3.441406 -5.765625 3.609375 -6.109375 C 3.773438 -6.460938 3.859375 -6.867188 3.859375 -7.328125 C 3.859375 -7.828125 3.769531 -8.207031 3.59375 -8.46875 C 3.414062 -8.726562 3.125 -8.859375 2.71875 -8.859375 C 2.3125 -8.859375 2.019531 -8.726562 1.84375 -8.46875 C 1.664062 -8.207031 1.578125 -7.859375 1.578125 -7.421875 L 1.578125 -6.5625 L 0.5625 -6.5625 L 0.5625 -7.359375 C 0.5625 -8.109375 0.734375 -8.707031 1.078125 -9.15625 C 1.429688 -9.601562 1.984375 -9.828125 2.734375 -9.828125 Z M 2.734375 -9.828125 "/></g></g></g><g fill="#ffffff" fill-opacity="1"><g transform="translate(235.85459, 204.554312)"><g><path d="M 0.46875 -7.390625 C 0.46875 -8.140625 0.648438 -8.734375 1.015625 -9.171875 C 1.390625 -9.609375 1.953125 -9.828125 2.703125 -9.828125 C 3.453125 -9.828125 4.007812 -9.609375 4.375 -9.171875 C 4.75 -8.734375 4.9375 -8.140625 4.9375 -7.390625 L 4.9375 -2.359375 C 4.9375 -1.609375 4.75 -1.007812 4.375 -0.5625 C 4.007812 -0.125 3.453125 0.09375 2.703125 0.09375 C 1.953125 0.09375 1.390625 -0.125 1.015625 -0.5625 C 0.648438 -1.007812 0.46875 -1.609375 0.46875 -2.359375 Z M 1.546875 -2.296875 C 1.546875 -1.847656 1.640625 -1.5 1.828125 -1.25 C 2.015625 -1.007812 2.304688 -0.890625 2.703125 -0.890625 C 3.097656 -0.890625 3.390625 -1.007812 3.578125 -1.25 C 3.765625 -1.5 3.859375 -1.847656 3.859375 -2.296875 L 3.859375 -7.4375 C 3.859375 -7.882812 3.765625 -8.234375 3.578125 -8.484375 C 3.390625 -8.734375 3.097656 -8.859375 2.703125 -8.859375 C 2.304688 -8.859375 2.015625 -8.734375 1.828125 -8.484375 C 1.640625 -8.234375 1.546875 -7.882812 1.546875 -7.4375 Z M 1.546875 -2.296875 "/></g></g></g><g fill="#ffffff" fill-opacity="1"><g transform="translate(243.352575, 204.554312)"><g><path d="M 2.546875 -7.96875 C 2.359375 -7.851562 2.148438 -7.757812 1.921875 -7.6875 C 1.691406 -7.613281 1.453125 -7.566406 1.203125 -7.546875 L 1.203125 -8.4375 C 1.453125 -8.445312 1.671875 -8.488281 1.859375 -8.5625 C 2.046875 -8.632812 2.203125 -8.726562 2.328125 -8.84375 C 2.453125 -8.96875 2.554688 -9.101562 2.640625 -9.25 C 2.722656 -9.40625 2.796875 -9.566406 2.859375 -9.734375 L 3.609375 -9.734375 L 3.609375 0 L 2.546875 0 Z M 2.546875 -7.96875 "/></g></g></g><g fill="#ffffff" fill-opacity="1"><g transform="translate(250.141153, 204.554312)"><g><path d="M 4.5 -1.953125 L 4.5 0 L 3.453125 0 L 3.453125 -1.953125 L 0.3125 -1.953125 L 0.3125 -2.953125 L 3.328125 -9.734375 L 4.5 -9.734375 L 4.5 -2.953125 L 5.28125 -2.953125 L 5.28125 -1.953125 Z M 1.3125 -2.953125 L 3.453125 -2.953125 L 3.453125 -7.703125 Z M 1.3125 -2.953125 "/></g></g></g><path fill="#ffffff" d="M 154.589844 207.019531 C 154.589844 207.019531 154.269531 207.050781 153.667969 207.105469 C 153.066406 207.160156 152.183594 207.261719 151.066406 207.34375 C 148.820312 207.523438 145.617188 207.757812 141.769531 207.953125 C 139.847656 208.054688 137.761719 208.160156 135.558594 208.230469 C 133.355469 208.3125 131.03125 208.414062 128.628906 208.453125 C 126.222656 208.496094 123.742188 208.585938 121.21875 208.59375 C 118.691406 208.609375 116.128906 208.628906 113.566406 208.648438 C 111 208.628906 108.4375 208.613281 105.914062 208.59375 C 103.386719 208.59375 100.902344 208.496094 98.5 208.453125 C 96.097656 208.414062 93.773438 208.316406 91.570312 208.238281 C 89.367188 208.167969 87.285156 208.058594 85.359375 207.957031 C 81.515625 207.761719 78.308594 207.527344 76.066406 207.34375 C 73.820312 207.164062 72.539062 207.019531 72.539062 207.019531 C 72.539062 207.019531 73.820312 206.875 76.066406 206.695312 C 78.308594 206.515625 81.515625 206.277344 85.359375 206.082031 C 87.285156 205.980469 89.367188 205.875 91.570312 205.804688 C 93.773438 205.722656 96.097656 205.625 98.5 205.585938 C 100.902344 205.542969 103.386719 205.445312 105.914062 205.445312 C 108.4375 205.429688 111 205.410156 113.566406 205.390625 C 116.128906 205.410156 118.691406 205.429688 121.21875 205.445312 C 123.742188 205.453125 126.222656 205.546875 128.628906 205.589844 C 131.03125 205.628906 133.355469 205.726562 135.558594 205.808594 C 137.761719 205.878906 139.847656 205.988281 141.769531 206.089844 C 145.617188 206.28125 148.820312 206.515625 151.066406 206.695312 C 152.183594 206.777344 153.066406 206.878906 153.667969 206.933594 C 154.269531 206.988281 154.589844 207.019531 154.589844 207.019531 " fill-opacity="1" fill-rule="nonzero"/><path fill="#ffffff" d="M 131.570312 170.363281 C 131.570312 170.84375 131.960938 171.378906 132.441406 171.554688 L 142.089844 175.058594 C 142.566406 175.238281 142.957031 174.992188 142.957031 174.507812 L 142.957031 173.363281 C 142.957031 172.882812 142.566406 172.347656 142.089844 172.175781 L 132.441406 168.667969 C 131.960938 168.492188 131.570312 168.742188 131.570312 169.21875 L 131.570312 170.363281 " fill-opacity="1" fill-rule="nonzero"/><path fill="#ffffff" d="M 117.945312 176.085938 C 117.945312 176.414062 118.210938 176.492188 118.542969 176.257812 L 125.144531 171.582031 C 125.472656 171.347656 125.742188 170.894531 125.742188 170.5625 L 125.742188 169.78125 C 125.742188 169.453125 125.472656 169.375 125.144531 169.605469 L 118.542969 174.28125 C 118.210938 174.515625 117.945312 174.972656 117.945312 175.300781 L 117.945312 176.085938 " fill-opacity="1" fill-rule="nonzero"/><path fill="#ffffff" d="M 117.945312 183.882812 C 117.945312 184.210938 118.210938 184.289062 118.542969 184.054688 L 125.144531 179.378906 C 125.472656 179.144531 125.742188 178.691406 125.742188 178.359375 L 125.742188 177.578125 C 125.742188 177.25 125.472656 177.167969 125.144531 177.40625 L 118.542969 182.082031 C 118.210938 182.3125 117.945312 182.769531 117.945312 183.101562 L 117.945312 183.882812 " fill-opacity="1" fill-rule="nonzero"/><path fill="#ffffff" d="M 131.570312 178.589844 C 131.570312 179.074219 131.960938 179.601562 132.441406 179.78125 L 142.089844 183.292969 C 142.566406 183.464844 142.957031 183.21875 142.957031 182.738281 L 142.957031 181.59375 C 142.957031 181.109375 142.566406 180.578125 142.089844 180.40625 L 132.441406 176.894531 C 131.960938 176.71875 131.570312 176.96875 131.570312 177.449219 L 131.570312 178.589844 " fill-opacity="1" fill-rule="nonzero"/><path fill="#ffffff" d="M 131.570312 187.125 C 131.570312 187.601562 131.960938 188.136719 132.441406 188.3125 L 142.089844 191.820312 C 142.566406 192 142.957031 191.75 142.957031 191.265625 L 142.957031 190.125 C 142.957031 189.644531 142.566406 189.109375 142.089844 188.9375 L 132.441406 185.425781 C 131.960938 185.25 131.570312 185.5 131.570312 185.980469 L 131.570312 187.125 " fill-opacity="1" fill-rule="nonzero"/><path fill="#ffffff" d="M 117.945312 192.84375 C 117.945312 193.171875 118.210938 193.253906 118.542969 193.019531 L 125.144531 188.34375 C 125.472656 188.109375 125.742188 187.652344 125.742188 187.324219 L 125.742188 186.542969 C 125.742188 186.214844 125.472656 186.132812 125.144531 186.367188 L 118.542969 191.042969 C 118.210938 191.277344 117.945312 191.734375 117.945312 192.0625 L 117.945312 192.84375 " fill-opacity="1" fill-rule="nonzero"/><path fill="#ffffff" d="M 117.945312 200.644531 C 117.945312 200.972656 118.210938 201.046875 118.542969 200.816406 L 125.144531 196.140625 C 125.472656 195.90625 125.742188 195.449219 125.742188 195.121094 L 125.742188 194.335938 C 125.742188 194.011719 125.472656 193.929688 125.144531 194.164062 L 118.542969 198.839844 C 118.210938 199.070312 117.945312 199.527344 117.945312 199.859375 L 117.945312 200.644531 " fill-opacity="1" fill-rule="nonzero"/><path fill="#ffffff" d="M 131.570312 195.351562 C 131.570312 195.832031 131.960938 196.363281 132.441406 196.539062 L 142.089844 200.050781 C 142.566406 200.226562 142.957031 199.980469 142.957031 199.496094 L 142.957031 198.351562 C 142.957031 197.871094 142.566406 197.339844 142.089844 197.167969 L 132.441406 193.65625 C 131.960938 193.480469 131.570312 193.726562 131.570312 194.207031 L 131.570312 195.351562 " fill-opacity="1" fill-rule="nonzero"/><path fill="#ffffff" d="M 84.191406 206.417969 L 84.191406 140.496094 L 97.726562 129.707031 L 97.726562 206.46875 C 98.484375 206.488281 99.246094 206.503906 100.003906 206.53125 L 100.003906 129.078125 L 119.464844 137.199219 L 119.464844 168.078125 L 114.921875 171.703125 C 114.648438 171.917969 114.492188 172.246094 114.492188 172.59375 L 114.492188 207.453125 L 116.769531 207.453125 L 116.769531 173.140625 L 127.257812 164.777344 L 127.257812 207.453125 L 129.535156 207.453125 L 129.535156 164.140625 L 144.8125 170.515625 L 144.8125 207.453125 L 147.089844 207.453125 L 147.089844 169.757812 C 147.089844 169.296875 146.816406 168.882812 146.390625 168.703125 L 128.898438 161.40625 C 128.796875 161.355469 128.679688 161.324219 128.5625 161.304688 C 128.519531 161.296875 128.484375 161.292969 128.441406 161.289062 L 128.386719 161.289062 C 128.128906 161.289062 127.878906 161.371094 127.671875 161.535156 L 121.742188 166.261719 L 121.742188 136.4375 C 121.742188 135.976562 121.46875 135.566406 121.042969 135.386719 L 99.375 126.351562 C 99.269531 126.292969 99.148438 126.257812 99.019531 126.238281 C 98.984375 126.230469 98.945312 126.230469 98.910156 126.226562 L 98.863281 126.222656 L 98.851562 126.226562 C 98.59375 126.222656 98.339844 126.304688 98.132812 126.472656 L 82.339844 139.0625 C 82.070312 139.277344 81.914062 139.605469 81.914062 139.949219 L 81.914062 206.414062 C 82.675781 206.414062 83.433594 206.417969 84.191406 206.421875 " fill-opacity="1" fill-rule="nonzero"/><path fill="#ffffff" d="M 102.792969 137.191406 C 102.792969 137.785156 103.277344 138.445312 103.871094 138.664062 L 115.816406 143.007812 C 116.414062 143.226562 116.894531 142.917969 116.894531 142.324219 L 116.894531 140.910156 C 116.894531 140.3125 116.414062 139.652344 115.816406 139.4375 L 103.871094 135.089844 C 103.277344 134.871094 102.792969 135.175781 102.792969 135.773438 L 102.792969 137.191406 " fill-opacity="1" fill-rule="nonzero"/><path fill="#ffffff" d="M 85.921875 144.277344 C 85.921875 144.683594 86.25 144.78125 86.65625 144.492188 L 94.835938 138.699219 C 95.242188 138.410156 95.570312 137.847656 95.570312 137.4375 L 95.570312 136.46875 C 95.570312 136.0625 95.242188 135.964844 94.835938 136.253906 L 86.65625 142.046875 C 86.25 142.332031 85.921875 142.898438 85.921875 143.308594 L 85.921875 144.277344 " fill-opacity="1" fill-rule="nonzero"/><path fill="#ffffff" d="M 85.921875 154.257812 C 85.921875 154.667969 86.25 154.765625 86.65625 154.476562 L 94.835938 148.683594 C 95.242188 148.390625 95.570312 147.828125 95.570312 147.421875 L 95.570312 146.449219 C 95.570312 146.042969 95.242188 145.945312 94.835938 146.234375 L 86.65625 152.027344 C 86.25 152.3125 85.921875 152.878906 85.921875 153.289062 L 85.921875 154.257812 " fill-opacity="1" fill-rule="nonzero"/><path fill="#ffffff" d="M 85.921875 164.242188 C 85.921875 164.648438 86.25 164.746094 86.65625 164.453125 L 94.835938 158.664062 C 95.242188 158.375 95.570312 157.808594 95.570312 157.402344 L 95.570312 156.433594 C 95.570312 156.027344 95.242188 155.925781 94.835938 156.214844 L 86.65625 162.011719 C 86.25 162.296875 85.921875 162.863281 85.921875 163.269531 L 85.921875 164.242188 " fill-opacity="1" fill-rule="nonzero"/><path fill="#ffffff" d="M 102.792969 147.386719 C 102.792969 147.980469 103.277344 148.640625 103.871094 148.859375 L 115.816406 153.203125 C 116.414062 153.421875 116.894531 153.117188 116.894531 152.519531 L 116.894531 151.101562 C 116.894531 150.507812 116.414062 149.847656 115.816406 149.632812 L 103.871094 145.285156 C 103.277344 145.066406 102.792969 145.375 102.792969 145.96875 L 102.792969 147.386719 " fill-opacity="1" fill-rule="nonzero"/><path fill="#ffffff" d="M 102.792969 157.582031 C 102.792969 158.175781 103.277344 158.835938 103.871094 159.054688 L 115.816406 163.402344 C 116.414062 163.617188 116.894531 163.308594 116.894531 162.714844 L 116.894531 161.296875 C 116.894531 160.707031 116.414062 160.042969 115.816406 159.824219 L 103.871094 155.476562 C 103.277344 155.261719 102.792969 155.570312 102.792969 156.164062 L 102.792969 157.582031 " fill-opacity="1" fill-rule="nonzero"/><path fill="#ffffff" d="M 102.792969 187.578125 C 102.792969 188.175781 103.277344 188.835938 103.871094 189.046875 L 115.816406 193.398438 C 116.414062 193.613281 116.894531 193.304688 116.894531 192.710938 L 116.894531 191.296875 C 116.894531 190.699219 116.414062 190.039062 115.816406 189.824219 L 103.871094 185.476562 C 103.277344 185.257812 102.792969 185.5625 102.792969 186.160156 L 102.792969 187.578125 " fill-opacity="1" fill-rule="nonzero"/><path fill="#ffffff" d="M 85.921875 194.664062 C 85.921875 195.070312 86.25 195.167969 86.65625 194.878906 L 94.835938 189.089844 C 95.242188 188.796875 95.570312 188.234375 95.570312 187.824219 L 95.570312 186.855469 C 95.570312 186.449219 95.242188 186.351562 94.835938 186.640625 L 86.65625 192.433594 C 86.25 192.71875 85.921875 193.285156 85.921875 193.695312 L 85.921875 194.664062 " fill-opacity="1" fill-rule="nonzero"/><path fill="#ffffff" d="M 85.921875 204.644531 C 85.921875 205.054688 86.25 205.152344 86.65625 204.863281 L 94.835938 199.070312 C 95.242188 198.78125 95.570312 198.214844 95.570312 197.808594 L 95.570312 196.839844 C 95.570312 196.429688 95.242188 196.335938 94.835938 196.621094 L 86.65625 202.414062 C 86.25 202.703125 85.921875 203.269531 85.921875 203.675781 L 85.921875 204.644531 " fill-opacity="1" fill-rule="nonzero"/><path fill="#ffffff" d="M 102.792969 197.773438 C 102.792969 198.367188 103.277344 199.027344 103.871094 199.242188 L 115.816406 203.589844 C 116.414062 203.808594 116.894531 203.503906 116.894531 202.90625 L 116.894531 201.492188 C 116.894531 200.894531 116.414062 200.234375 115.816406 200.019531 L 103.871094 195.671875 C 103.277344 195.457031 102.792969 195.761719 102.792969 196.355469 L 102.792969 197.773438 " fill-opacity="1" fill-rule="nonzero"/><path fill="#ffffff" d="M 106.664062 206.882812 L 103.871094 205.867188 C 103.277344 205.648438 102.792969 205.957031 102.792969 206.550781 L 102.792969 206.652344 C 104.085938 206.714844 105.378906 206.792969 106.664062 206.882812 " fill-opacity="1" fill-rule="nonzero"/><path fill="#ffffff" d="M 102.792969 167.777344 C 102.792969 168.371094 103.277344 169.035156 103.871094 169.25 L 115.816406 173.597656 L 116.894531 172.910156 L 116.894531 171.496094 C 116.894531 170.898438 116.414062 170.242188 115.816406 170.023438 L 103.871094 165.675781 C 103.277344 165.460938 102.792969 165.765625 102.792969 166.359375 L 102.792969 167.777344 " fill-opacity="1" fill-rule="nonzero"/><path fill="#ffffff" d="M 85.921875 174.222656 C 85.921875 174.632812 86.25 174.726562 86.65625 174.4375 L 94.835938 168.648438 C 95.242188 168.355469 95.570312 167.789062 95.570312 167.386719 L 95.570312 166.414062 C 95.570312 166.003906 95.242188 165.910156 94.835938 166.199219 L 86.65625 171.992188 C 86.25 172.28125 85.921875 172.84375 85.921875 173.253906 L 85.921875 174.222656 " fill-opacity="1" fill-rule="nonzero"/><path fill="#ffffff" d="M 94.835938 178.625 L 86.65625 184.417969 C 86.632812 184.4375 86.609375 184.445312 86.585938 184.464844 L 85.988281 184.464844 C 85.945312 184.398438 85.921875 184.316406 85.921875 184.203125 L 85.921875 183.234375 C 85.921875 182.828125 86.25 182.261719 86.65625 181.972656 L 94.835938 176.183594 C 95.242188 175.894531 95.570312 175.988281 95.570312 176.398438 L 95.570312 177.367188 C 95.570312 177.773438 95.242188 178.339844 94.835938 178.625 " fill-opacity="1" fill-rule="nonzero"/><path fill="#ffffff" d="M 102.792969 177.972656 C 102.792969 178.570312 103.277344 179.226562 103.871094 179.445312 L 115.816406 183.792969 C 116.414062 184.007812 116.273438 183.699219 116.273438 183.105469 L 116.273438 181.691406 C 116.273438 181.09375 116.414062 180.433594 115.816406 180.21875 L 103.871094 175.871094 C 103.277344 175.652344 102.792969 175.960938 102.792969 176.558594 L 102.792969 177.972656 " fill-opacity="1" fill-rule="nonzero"/></svg>